<?xml version="1.0" encoding="iso-8859-1"?>
<!-- Generator: Adobe Illustrator 17.1.0, SVG Export Plug-In . SVG Version: 6.00 Build 0)  -->
<!DOCTYPE svg PUBLIC "-//W3C//DTD SVG 1.1//EN" "http://www.w3.org/Graphics/SVG/1.1/DTD/svg11.dtd">
<svg version="1.1" id="Capa_1" xmlns="http://www.w3.org/2000/svg" xmlns:xlink="http://www.w3.org/1999/xlink" x="0px" y="0px"
	 viewBox="0 0 477.6 477.6" style="enable-background:new 0 0 477.6 477.6;" xml:space="preserve">
<path d="M373.65,150.175c-25.538,0-48.951,9.263-67.067,24.598l-22.092-13.658c-2.18-23.295-21.836-41.591-45.691-41.591
	s-43.511,18.295-45.691,41.591l-22.092,13.658c-18.116-15.335-41.528-24.598-67.067-24.598C46.632,150.175,0,196.807,0,254.125
	s46.632,103.95,103.95,103.95c45.416,0,84.117-29.279,98.234-69.95H218.8c7.875,0,14.982-3.333,20-8.655
	c5.018,5.323,12.125,8.655,20,8.655h16.616c14.117,40.671,52.818,69.95,98.234,69.95c57.318,0,103.95-46.632,103.95-103.95
	S430.968,150.175,373.65,150.175z M231.3,135.45v12.775c0,4.143,3.358,7.5,7.5,7.5s7.5-3.357,7.5-7.5V135.45
	c13.425,3.361,23.4,15.523,23.4,29.975s-9.975,26.615-23.4,29.975v-11.33c0-4.143-3.358-7.5-7.5-7.5s-7.5,3.357-7.5,7.5v11.33
	c-13.425-3.361-23.4-15.523-23.4-29.975S217.875,138.81,231.3,135.45z M103.95,343.075c-49.047,0-88.95-39.903-88.95-88.95
	s39.903-88.95,88.95-88.95c49.047,0,88.95,39.903,88.95,88.95S152.997,343.075,103.95,343.075z M218.8,273.125h-12.646
	c1.143-6.162,1.746-12.512,1.746-19c0-26.232-9.772-50.222-25.861-68.532l12.575-7.774c4.764,16.958,19.039,29.97,36.686,32.884
	v49.923C231.3,267.518,225.692,273.125,218.8,273.125z M258.8,273.125c-6.893,0-12.5-5.607-12.5-12.5v-49.923
	c17.647-2.914,31.922-15.925,36.686-32.884l12.575,7.774c-16.089,18.31-25.861,42.3-25.861,68.532c0,6.488,0.603,12.838,1.746,19
	H258.8z M373.65,343.075c-49.047,0-88.95-39.903-88.95-88.95s39.903-88.95,88.95-88.95c49.047,0,88.95,39.903,88.95,88.95
	S422.697,343.075,373.65,343.075z M162.723,209.503c-2.507-3.299-7.212-3.938-10.509-1.432c-3.297,2.507-3.938,7.213-1.431,10.51
	c1.864,2.452,3.513,5.021,4.952,7.683l-79.625,79.625c-9.556-5.16-17.532-12.887-22.991-22.254l81.626-85.598
	c1.707-1.79,2.421-4.306,1.911-6.725c-0.511-2.42-2.182-4.433-4.466-5.379c-8.961-3.716-18.462-5.6-28.238-5.6
	c-40.688,0-73.79,33.103-73.79,73.79c0,11.044,2.439,21.529,6.806,30.944c0.131,0.341,0.288,0.674,0.471,0.995
	c7.308,15.158,19.652,27.442,34.843,34.691c1.282,1.183,2.872,1.84,4.5,1.965c8.414,3.344,17.578,5.194,27.17,5.194
	c40.688,0,73.79-33.102,73.79-73.789C177.739,237.854,172.547,222.424,162.723,209.503z M46.914,268.406
	c-1.145-4.573-1.754-9.358-1.754-14.281c0-32.417,26.373-58.79,58.79-58.79c3.921,0,7.785,0.379,11.564,1.133L46.914,268.406z
	 M103.95,312.914c-4.233,0-8.36-0.456-12.342-1.31l69.834-69.835c0.855,4.018,1.297,8.15,1.297,12.355
	C162.739,286.541,136.366,312.914,103.95,312.914z M432.423,209.503c-2.507-3.299-7.212-3.938-10.51-1.432
	c-3.297,2.507-3.938,7.212-1.432,10.51c1.864,2.452,3.513,5.021,4.952,7.683l-79.625,79.625
	c-9.556-5.16-17.532-12.887-22.991-22.254l81.626-85.598c1.707-1.79,2.421-4.306,1.911-6.726c-0.511-2.419-2.182-4.432-4.466-5.379
	c-8.962-3.715-18.463-5.599-28.238-5.599c-40.688,0-73.79,33.103-73.79,73.79c0,11.041,2.438,21.524,6.803,30.938
	c0.133,0.345,0.292,0.682,0.476,1.007c7.308,15.155,19.652,27.437,34.84,34.685c1.282,1.183,2.873,1.84,4.501,1.965
	c8.414,3.344,17.578,5.194,27.169,5.194c40.688,0,73.789-33.102,73.789-73.789C447.439,237.854,442.247,222.425,432.423,209.503z
	 M316.614,268.406c-1.145-4.573-1.754-9.358-1.754-14.281c0-32.417,26.373-58.79,58.79-58.79c3.921,0,7.785,0.38,11.564,1.133
	L316.614,268.406z M373.65,312.914c-4.233,0-8.36-0.456-12.342-1.31l69.834-69.834c0.855,4.018,1.297,8.15,1.297,12.355
	C432.439,286.541,406.066,312.914,373.65,312.914z"/>
<g>
</g>
<g>
</g>
<g>
</g>
<g>
</g>
<g>
</g>
<g>
</g>
<g>
</g>
<g>
</g>
<g>
</g>
<g>
</g>
<g>
</g>
<g>
</g>
<g>
</g>
<g>
</g>
<g>
</g>
</svg>
